<?xml version="1.0" encoding="utf-8"?>
<!-- Generator: Adobe Illustrator 16.0.0, SVG Export Plug-In . SVG Version: 6.00 Build 0)  -->
<!DOCTYPE svg PUBLIC "-//W3C//DTD SVG 1.1//EN" "http://www.w3.org/Graphics/SVG/1.1/DTD/svg11.dtd">
<svg version="1.1" id="RICKY_DONALD" xmlns="http://www.w3.org/2000/svg" xmlns:xlink="http://www.w3.org/1999/xlink" x="0px"
	 y="0px" width="172.2px" height="15.24px" viewBox="0 0 172.2 15.24" enable-background="new 0 0 172.2 15.24"
	 xml:space="preserve">
<g>
	<path fill="#FFFFFF" d="M8.923,15.001l-3.147-4.713H3.237v4.713H0.006V0.271H6.72c3.462,0,5.539,1.831,5.539,4.861v0.042
		c0,2.378-1.28,3.872-3.147,4.566l3.587,5.261H8.923z M8.986,5.301c0-1.389-0.965-2.104-2.539-2.104h-3.21v4.229H6.51
		c1.573,0,2.476-0.842,2.476-2.083V5.301z"/>
	<path fill="#FFFFFF" d="M15.737,15.001V0.271h3.231v14.729H15.737z"/>
	<path fill="#FFFFFF" d="M29.939,15.254c-4.322,0-7.532-3.346-7.532-7.575V7.637c0-4.188,3.147-7.618,7.658-7.618
		c2.77,0,4.427,0.926,5.791,2.272l-2.056,2.378c-1.133-1.031-2.287-1.662-3.755-1.662c-2.476,0-4.259,2.062-4.259,4.587v0.042
		c0,2.524,1.742,4.629,4.259,4.629c1.678,0,2.707-0.674,3.86-1.726l2.056,2.083C34.45,14.243,32.771,15.254,29.939,15.254z"/>
	<path fill="#FFFFFF" d="M48.439,15.001L43.886,8.73l-1.699,1.768v4.503h-3.231V0.271h3.231V6.71l5.958-6.439h3.902l-5.979,6.25
		l6.252,8.48H48.439z"/>
	<path fill="#FFFFFF" d="M61.422,9.13v5.871h-3.231V9.193l-5.644-8.922h3.776l3.504,5.913l3.566-5.913h3.672L61.422,9.13z"/>
	<path fill="#FFFFFF" d="M81.935,15.001h-5.728V0.271h5.728c4.616,0,7.805,3.178,7.805,7.323v0.042
		C89.74,11.781,86.55,15.001,81.935,15.001z M86.362,7.637c0-2.609-1.784-4.44-4.427-4.44h-2.497v8.88h2.497
		c2.644,0,4.427-1.788,4.427-4.397V7.637z"/>
	<path fill="#FFFFFF" d="M100.162,15.254c-4.531,0-7.783-3.388-7.783-7.575V7.637c0-4.188,3.294-7.618,7.825-7.618
		c4.532,0,7.784,3.388,7.784,7.575v0.042C107.988,11.823,104.694,15.254,100.162,15.254z M104.61,7.637
		c0-2.525-1.847-4.629-4.448-4.629s-4.405,2.062-4.405,4.587v0.042c0,2.524,1.846,4.629,4.447,4.629s4.406-2.063,4.406-4.587V7.637z
		"/>
	<path fill="#FFFFFF" d="M121.579,15.001l-7.113-9.364v9.364h-3.188V0.271h2.979l6.882,9.069V0.271h3.189v14.729H121.579z"/>
	<path fill="#FFFFFF" d="M139.197,15.001l-1.343-3.304h-6.21l-1.343,3.304h-3.294l6.294-14.834h2.979l6.294,14.834H139.197z
		 M134.749,4.059l-1.951,4.777h3.902L134.749,4.059z"/>
	<path fill="#FFFFFF" d="M145.255,15.001V0.271h3.23v11.783h7.322v2.946H145.255z"/>
	<path fill="#FFFFFF" d="M164.386,15.001h-5.728V0.271h5.728c4.615,0,7.805,3.178,7.805,7.323v0.042
		C172.191,11.781,169.001,15.001,164.386,15.001z M168.813,7.637c0-2.609-1.783-4.44-4.427-4.44h-2.497v8.88h2.497
		c2.644,0,4.427-1.788,4.427-4.397V7.637z"/>
</g>
</svg>
