<?xml version="1.0" encoding="utf-8"?>
<!-- Generator: Adobe Illustrator 16.0.0, SVG Export Plug-In . SVG Version: 6.00 Build 0)  -->
<!DOCTYPE svg PUBLIC "-//W3C//DTD SVG 1.1//EN" "http://www.w3.org/Graphics/SVG/1.1/DTD/svg11.dtd">
<svg version="1.1" id="Victo_global" xmlns="http://www.w3.org/2000/svg" xmlns:xlink="http://www.w3.org/1999/xlink" x="0px"
	 y="0px" width="161.28px" height="31.68px" viewBox="0 0 161.28 31.68" enable-background="new 0 0 161.28 31.68"
	 xml:space="preserve">
<g>
	<path fill="#FFFFFF" d="M10.687,22.849c-0.4,0.7-0.814,1.275-1.243,1.726c-0.43,0.45-0.869,0.81-1.318,1.08
		c-0.449,0.27-0.904,0.46-1.363,0.569c-0.46,0.11-0.909,0.165-1.348,0.165c-0.619,0-1.228-0.095-1.827-0.285
		c-0.599-0.189-1.138-0.465-1.618-0.824c-0.479-0.36-0.864-0.811-1.153-1.351c-0.29-0.54-0.435-1.159-0.435-1.859
		c0-0.2,0.01-0.41,0.03-0.63c0.02-0.221,0.06-0.45,0.12-0.69l4.014-18.21c0.1-0.6,0.304-1.08,0.614-1.44
		c0.309-0.36,0.664-0.605,1.063-0.735c0.399-0.129,0.813-0.15,1.243-0.06c0.429,0.09,0.804,0.275,1.124,0.555
		c0.319,0.28,0.559,0.655,0.719,1.125c0.16,0.47,0.169,1.025,0.03,1.665l-4.014,17.43c-0.1,0.36-0.12,0.625-0.06,0.795
		c0.06,0.17,0.14,0.275,0.24,0.315c0.22,0.08,0.454-0.005,0.704-0.256c0.25-0.249,0.484-0.574,0.704-0.975
		c0.719-1.3,1.438-2.61,2.157-3.93c0.719-1.32,1.487-2.73,2.307-4.23c0.818-1.5,1.702-3.12,2.651-4.86
		c0.948-1.74,1.992-3.68,3.13-5.82c0.419-0.9,0.958-1.505,1.618-1.815s1.258-0.375,1.797-0.195c0.539,0.18,0.918,0.575,1.138,1.185
		c0.219,0.61,0.08,1.395-0.419,2.355L10.687,22.849z"/>
	<path fill="#FFFFFF" d="M21.11,21.319c-0.06,0.18-0.09,0.34-0.09,0.479c0,0.28,0.105,0.521,0.314,0.72
		c0.21,0.2,0.484,0.301,0.824,0.301c0.3,0,0.619-0.085,0.958-0.255c0.339-0.17,0.689-0.455,1.048-0.855
		c0.36-0.399,0.724-0.925,1.093-1.575c0.37-0.649,0.734-1.465,1.094-2.444c0.199-0.561,0.539-0.94,1.018-1.141
		c0.479-0.199,0.948-0.255,1.408-0.165c0.459,0.09,0.828,0.311,1.108,0.66c0.28,0.351,0.33,0.795,0.15,1.335
		c-0.52,1.561-1.108,2.85-1.767,3.87c-0.659,1.02-1.348,1.84-2.067,2.46s-1.453,1.055-2.202,1.305s-1.493,0.375-2.231,0.375
		c-0.699,0-1.353-0.1-1.962-0.3c-0.609-0.2-1.148-0.49-1.618-0.87s-0.839-0.845-1.108-1.395s-0.404-1.175-0.404-1.875
		c0-0.26,0.035-0.57,0.105-0.931c0.07-0.359,0.155-0.689,0.254-0.989c0.24-0.7,0.495-1.44,0.764-2.221
		c0.27-0.779,0.543-1.564,0.824-2.354c0.279-0.79,0.554-1.58,0.824-2.37c0.27-0.79,0.524-1.535,0.764-2.235
		c0.279-0.82,0.704-1.39,1.273-1.71s1.113-0.42,1.632-0.3c0.519,0.12,0.929,0.445,1.228,0.975c0.3,0.53,0.319,1.225,0.06,2.085
		L21.11,21.319z M25.154,6.019c-0.679,0-1.258-0.24-1.737-0.72c-0.479-0.48-0.719-1.069-0.719-1.77c0-0.68,0.239-1.255,0.719-1.725
		c0.479-0.47,1.058-0.705,1.737-0.705c0.679,0,1.258,0.235,1.737,0.705c0.479,0.47,0.719,1.045,0.719,1.725
		c0,0.701-0.24,1.29-0.719,1.77C26.412,5.779,25.833,6.019,25.154,6.019z"/>
	<path fill="#FFFFFF" d="M39.861,17.509c0.18-0.54,0.504-0.899,0.974-1.079c0.469-0.181,0.923-0.211,1.363-0.091
		c0.439,0.12,0.798,0.365,1.078,0.735c0.279,0.37,0.319,0.825,0.12,1.365c-0.479,1.359-1.099,2.54-1.857,3.539
		c-0.759,1.001-1.613,1.83-2.561,2.49c-0.949,0.66-1.962,1.15-3.04,1.471c-1.079,0.319-2.167,0.479-3.265,0.479
		s-2.102-0.15-3.01-0.45c-0.909-0.3-1.688-0.709-2.336-1.229s-1.153-1.145-1.513-1.875s-0.539-1.525-0.539-2.386
		c0-0.68,0.12-1.38,0.359-2.1l1.708-5.04c0.259-0.78,0.614-1.459,1.063-2.04c0.449-0.58,0.948-1.055,1.498-1.425
		c0.549-0.37,1.138-0.645,1.767-0.825c0.629-0.18,1.263-0.27,1.902-0.27c0.818,0,1.562,0.18,2.231,0.54
		c0.668,0.36,1.208,0.851,1.617,1.47c0.409,0.62,0.659,1.33,0.749,2.13c0.09,0.8-0.025,1.65-0.345,2.55
		c-0.339,0.881-0.804,1.445-1.393,1.695c-0.589,0.25-1.138,0.285-1.647,0.104c-0.509-0.18-0.894-0.515-1.153-1.005
		c-0.26-0.49-0.24-1.035,0.06-1.635c0.279-0.52,0.379-0.97,0.299-1.35c-0.08-0.379-0.35-0.589-0.809-0.63
		c-0.26-0.02-0.52,0.075-0.779,0.285c-0.26,0.21-0.459,0.505-0.599,0.885v-0.03l-1.857,5.22c-0.12,0.4-0.18,0.761-0.18,1.08
		c0,0.761,0.304,1.4,0.914,1.92c0.609,0.521,1.433,0.78,2.471,0.78c0.559,0,1.153-0.095,1.782-0.285
		c0.629-0.189,1.243-0.495,1.842-0.915c0.599-0.42,1.168-0.965,1.708-1.635S39.481,18.469,39.861,17.509z"/>
	<path fill="#FFFFFF" d="M49.416,17.959c0.219-0.58,0.569-0.97,1.048-1.17c0.479-0.2,0.938-0.25,1.378-0.15
		c0.439,0.101,0.793,0.325,1.063,0.676c0.27,0.35,0.315,0.795,0.135,1.335c-0.859,2.479-2.047,4.39-3.565,5.729
		s-3.245,2.01-5.182,2.01c-0.779,0-1.516-0.109-2.21-0.33c-0.695-0.22-1.305-0.54-1.831-0.96s-0.947-0.93-1.264-1.529
		c-0.317-0.601-0.476-1.28-0.476-2.04c0-0.62,0.12-1.29,0.357-2.011v0.03c0.218-0.64,0.426-1.234,0.624-1.785
		c0.199-0.55,0.392-1.095,0.581-1.635c0.188-0.54,0.381-1.084,0.58-1.635c0.199-0.55,0.407-1.145,0.625-1.785h-0.988
		c-0.439,0-0.779-0.185-1.019-0.555c-0.24-0.37-0.334-0.78-0.285-1.23c0.05-0.45,0.255-0.859,0.614-1.23
		c0.359-0.37,0.918-0.555,1.677-0.555h1.25l2.274-6.33c0.239-0.76,0.634-1.26,1.183-1.5c0.549-0.24,1.083-0.295,1.603-0.165
		c0.519,0.13,0.943,0.41,1.273,0.84c0.33,0.43,0.404,0.935,0.225,1.515l-1.977,5.64h1.348c0.639,0,1.088,0.185,1.348,0.555
		c0.259,0.371,0.354,0.78,0.285,1.23c-0.07,0.45-0.305,0.86-0.704,1.23c-0.399,0.371-0.938,0.555-1.617,0.555h-1.947l-2.845,8.004
		c-0.08,0.181-0.12,0.401-0.12,0.662c0,0.401,0.155,0.742,0.464,1.023c0.31,0.28,0.734,0.421,1.273,0.421
		c0.878,0,1.752-0.396,2.621-1.186S48.817,19.619,49.416,17.959z"/>
	<path fill="#FFFFFF" d="M61.218,20.119c0.06,0.02,0.129,0.03,0.209,0.03c0.08,0,0.15,0,0.21,0c0.898,0,1.672-0.29,2.321-0.87
		c0.648-0.58,1.143-1.34,1.483-2.28c0.199-0.66,0.539-1.11,1.018-1.35c0.479-0.24,0.944-0.305,1.393-0.195s0.804,0.39,1.063,0.84
		c0.259,0.45,0.27,1.035,0.03,1.755c-0.26,0.78-0.619,1.516-1.079,2.205c-0.459,0.69-1.008,1.29-1.647,1.8
		c-0.64,0.511-1.348,0.915-2.127,1.215c-0.779,0.301-1.607,0.45-2.486,0.45c-0.619,0-1.218-0.079-1.797-0.24
		c-0.64,1.08-1.458,1.86-2.457,2.341c-0.999,0.479-2.087,0.72-3.265,0.72c-0.759,0-1.488-0.115-2.187-0.345
		c-0.699-0.23-1.318-0.561-1.857-0.99s-0.969-0.96-1.288-1.59c-0.319-0.63-0.479-1.335-0.479-2.115c0-0.34,0.035-0.69,0.105-1.05
		c0.07-0.36,0.165-0.73,0.284-1.11l2.426-6.69c0.24-0.66,0.579-1.255,1.019-1.785c0.439-0.529,0.943-0.975,1.513-1.335
		c0.569-0.36,1.188-0.634,1.857-0.825c0.669-0.19,1.353-0.285,2.052-0.285c0.799,0,1.563,0.12,2.292,0.36
		c0.729,0.24,1.358,0.585,1.887,1.035c0.529,0.45,0.938,0.99,1.228,1.62s0.404,1.325,0.345,2.085c-0.021,0.3-0.09,0.69-0.21,1.17
		c-0.12,0.48-0.26,0.965-0.419,1.456s-0.329,0.949-0.509,1.38c-0.18,0.43-0.33,0.734-0.45,0.915c-0.2,0.3-0.399,0.52-0.599,0.659
		c0.06,0.28,0.094,0.525,0.104,0.735C61.212,20.044,61.218,20.139,61.218,20.119z M58.432,15.499c0.1-0.32,0.219-0.695,0.359-1.125
		c0.14-0.43,0.209-0.785,0.209-1.065c0-0.34-0.14-0.645-0.419-0.915c-0.28-0.27-0.649-0.405-1.108-0.405
		c-0.459,0-0.884,0.135-1.273,0.405c-0.39,0.27-0.665,0.655-0.824,1.155c-0.659,1.56-1.188,2.875-1.588,3.945
		s-0.709,1.945-0.928,2.625c-0.06,0.18-0.125,0.425-0.195,0.734c-0.07,0.311-0.085,0.626-0.045,0.945
		c0.04,0.32,0.16,0.596,0.359,0.825c0.199,0.23,0.549,0.345,1.048,0.345c0.439,0,0.858-0.145,1.258-0.435
		c0.399-0.29,0.699-0.695,0.898-1.215c0-0.021,0.01-0.04,0.03-0.061c-0.28-0.24-0.529-0.51-0.749-0.81
		c-0.22-0.3-0.34-0.71-0.359-1.23c0-0.439,0.084-0.854,0.254-1.245c0.169-0.39,0.399-0.72,0.689-0.989
		c0.289-0.271,0.619-0.47,0.988-0.601c0.37-0.13,0.764-0.175,1.183-0.135c0.02-0.12,0.05-0.24,0.09-0.36
		C58.352,15.769,58.392,15.639,58.432,15.499z"/>
	<path fill="#FFFFFF" d="M84.73,31.669c-3.195,0-5.421-1.22-6.679-3.66l1.857-0.81c0.959,1.76,2.546,2.64,4.763,2.64
		c1.717,0,3.035-0.47,3.954-1.41c0.918-0.94,1.378-2.3,1.378-4.08v-2.37c-0.5,1.041-1.258,1.881-2.276,2.521
		c-1.019,0.641-2.207,0.96-3.564,0.96c-2.117,0-3.845-0.725-5.182-2.175c-1.338-1.45-2.007-3.285-2.007-5.505
		c0-2.22,0.664-4.05,1.992-5.49c1.328-1.44,3.06-2.16,5.197-2.16c1.357,0,2.546,0.311,3.564,0.93c1.019,0.62,1.776,1.47,2.276,2.55
		v-3.18h1.977v13.799c0,2.3-0.64,4.115-1.917,5.445C88.784,31.004,87.007,31.669,84.73,31.669z M84.491,23.629
		c1.598,0,2.915-0.55,3.954-1.65c1.038-1.1,1.558-2.499,1.558-4.199c0-1.68-0.52-3.07-1.558-4.17c-1.039-1.1-2.356-1.65-3.954-1.65
		c-1.638,0-2.966,0.55-3.984,1.65c-1.019,1.1-1.527,2.491-1.527,4.17s0.509,3.074,1.527,4.185
		C81.525,23.074,82.853,23.629,84.491,23.629z"/>
	<path fill="#FFFFFF" d="M98.689,25.459h-1.978V3.469h1.978V25.459z"/>
	<path fill="#FFFFFF" d="M110.37,25.789c-2.276,0-4.153-0.745-5.631-2.235c-1.478-1.489-2.217-3.354-2.217-5.595
		c0-2.26,0.739-4.13,2.217-5.61s3.354-2.22,5.631-2.22c2.257,0,4.129,0.74,5.617,2.22c1.487,1.48,2.231,3.35,2.231,5.61
		c0,2.24-0.744,4.105-2.231,5.595C114.499,25.044,112.626,25.789,110.37,25.789z M110.37,23.959c1.678,0,3.065-0.57,4.164-1.71
		c1.098-1.14,1.647-2.569,1.647-4.29c0-1.72-0.55-3.15-1.647-4.29c-1.099-1.14-2.486-1.71-4.164-1.71
		c-1.697,0-3.095,0.57-4.193,1.71s-1.647,2.57-1.647,4.29c0,1.721,0.549,3.15,1.647,4.29S108.672,23.959,110.37,23.959z"/>
	<path fill="#FFFFFF" d="M129.72,25.789c-1.378,0-2.576-0.325-3.595-0.975c-1.019-0.65-1.777-1.525-2.276-2.625v3.27h-1.978V3.469
		h1.978v10.23c0.499-1.1,1.253-1.97,2.262-2.61c1.008-0.64,2.201-0.96,3.579-0.96c2.137,0,3.874,0.735,5.212,2.205
		s2.007,3.345,2.007,5.625c0,2.261-0.669,4.13-2.007,5.61C133.564,25.049,131.836,25.789,129.72,25.789z M125.407,22.264
		c1.038,1.131,2.366,1.695,3.983,1.695c1.618,0,2.936-0.57,3.954-1.71s1.527-2.569,1.527-4.29c0-1.74-0.504-3.175-1.513-4.305
		c-1.008-1.129-2.331-1.695-3.969-1.695c-1.617,0-2.945,0.565-3.983,1.695c-1.039,1.13-1.558,2.565-1.558,4.305
		S124.368,21.135,125.407,22.264z"/>
	<path fill="#FFFFFF" d="M146.763,25.789c-2.117,0-3.845-0.74-5.183-2.22c-1.338-1.48-2.007-3.35-2.007-5.61
		c0-2.28,0.664-4.155,1.992-5.625s3.06-2.205,5.197-2.205c1.378,0,2.57,0.32,3.579,0.96c1.008,0.641,1.762,1.51,2.262,2.61v-3.27
		h1.977v15.03h-1.977v-3.27c-0.5,1.079-1.258,1.949-2.276,2.609S148.121,25.789,146.763,25.789z M147.092,23.959
		c1.598,0,2.915-0.564,3.954-1.695c1.038-1.129,1.558-2.564,1.558-4.305s-0.52-3.175-1.558-4.305
		c-1.039-1.129-2.356-1.695-3.954-1.695c-1.638,0-2.966,0.565-3.983,1.695c-1.019,1.13-1.528,2.565-1.528,4.305
		c0,1.721,0.51,3.15,1.528,4.29C144.126,23.389,145.455,23.959,147.092,23.959z"/>
	<path fill="#FFFFFF" d="M161.291,25.459h-1.978V3.469h1.978V25.459z"/>
</g>
</svg>
